# xmcd
#
# Track frame offsets:
#	150
#	28435
#	53545
#	66950
#	96855
#	114405
#	166305
#	200065
#
# Disc length: 3643 seconds
#
# Revision: 1
# Processed by: cddbd v1.5.1PL0 Copyright (c) Steve Scherf et al.
# Submitted via: EasyCDDAExtractor 8.0.2.1
#
DISCID=6e0e3908
DTITLE=Uriah Heep - Palatsport Bologna 27-05-80 Disc 1
DYEAR=1980
DGENRE=Hard Rock
TTITLE0=Stealin'
TTITLE1=Look At Yourself
TTITLE2=Free 'N' Easy
TTITLE3=No Return
TTITLE4=The Wizard
TTITLE5=July Morning
TTITLE6=Lady In Black
TTITLE7=Won't Have To Wait Too Long Incl Drum Solo
EXTD=
EXTT0=
EXTT1=
EXTT2=
EXTT3=
EXTT4=
EXTT5=
EXTT6=
EXTT7=
PLAYORDER=
